<?xml version="1.0" standalone="no"?>
<!DOCTYPE svg PUBLIC "-//W3C//DTD SVG 20010904//EN"
 "http://www.w3.org/TR/2001/REC-SVG-20010904/DTD/svg10.dtd">
<svg version="1.0" xmlns="http://www.w3.org/2000/svg"
 width="103.000000pt" height="103.000000pt" viewBox="0 0 103.000000 103.000000"
 preserveAspectRatio="xMidYMid meet">
<metadata>
Created by potrace 1.11, written by Peter Selinger 2001-2013
</metadata>
<g transform="translate(0.000000,103.000000) scale(0.100000,-0.100000)"
fill="#000000" stroke="none">
<path d="M501 909 c-1 -9 9 -24 21 -35 12 -10 18 -13 14 -6 -4 6 -2 12 3 12
16 0 13 -16 -6 -31 -10 -8 -14 -9 -10 -2 5 8 0 11 -13 10 -11 -1 -20 -4 -20
-7 0 -3 -9 -6 -20 -7 -20 -2 -23 18 -7 45 5 7 4 12 -2 12 -6 0 -11 -5 -11 -11
0 -5 -5 -7 -10 -4 -6 4 -17 1 -25 -5 -8 -6 -19 -9 -25 -5 -5 3 -24 -4 -41 -16
-25 -17 -33 -19 -39 -8 -5 7 -6 17 -3 23 3 5 1 6 -5 2 -9 -5 -9 -13 -2 -26 13
-25 13 -33 -2 -23 -21 13 -36 12 -42 -3 -3 -7 -1 -16 5 -20 6 -4 5 -12 -3 -22
-9 -12 -6 -11 10 2 12 11 22 14 22 9 0 -6 -7 -13 -15 -16 -8 -4 -12 -15 -10
-27 2 -11 0 -18 -6 -15 -5 4 -7 11 -4 16 4 5 -3 9 -14 9 -12 0 -21 -5 -21 -11
0 -5 -4 -8 -10 -4 -5 3 -7 12 -3 20 3 8 1 15 -5 15 -11 0 -11 -18 2 -38 11
-19 -3 -30 -15 -12 -9 13 -10 12 -6 -2 3 -9 1 -18 -6 -21 -6 -2 -4 -6 6 -10
12 -4 21 2 32 23 9 17 18 30 21 30 3 0 3 -4 0 -9 -4 -5 0 -12 6 -14 8 -3 5 -6
-6 -6 -15 -1 -16 -4 -6 -16 11 -13 10 -14 -5 -9 -14 6 -16 4 -10 -6 5 -8 4
-11 -2 -7 -13 8 -21 -9 -19 -45 1 -14 -1 -26 -4 -26 -18 2 -23 -4 -10 -12 9
-6 11 -13 5 -17 -17 -14 -16 -35 2 -49 17 -13 17 -14 -1 -7 -13 4 -17 3 -12
-5 3 -6 2 -13 -3 -17 -6 -3 -8 4 -6 15 2 11 0 18 -6 15 -13 -9 -11 9 3 23 7 7
8 12 2 12 -5 0 -15 -9 -21 -19 -10 -16 -9 -20 3 -25 8 -3 13 -11 12 -18 -2 -7
5 -12 15 -10 20 3 22 -9 5 -26 -9 -9 -9 -12 0 -12 7 0 12 -5 12 -10 0 -6 -8
-5 -19 2 -17 10 -17 13 -5 22 11 9 9 11 -12 13 -15 0 -23 -2 -18 -5 12 -9 18
-53 7 -51 -26 4 -34 -1 -21 -15 8 -9 17 -11 23 -5 15 15 25 11 34 -13 7 -18 4
-28 -17 -45 -14 -13 -29 -23 -34 -23 -5 0 -7 -4 -4 -9 3 -5 0 -11 -8 -14 -8
-3 -13 -14 -11 -24 2 -10 4 -22 4 -27 1 -4 9 0 18 11 10 10 14 12 8 4 -8 -12
-6 -13 8 -8 10 4 21 7 23 7 3 0 3 4 -1 9 -3 5 -1 12 4 15 13 9 7 -19 -8 -38
-7 -9 -9 -16 -3 -16 5 0 13 7 16 15 5 13 9 14 28 3 13 -7 26 -11 31 -10 4 1 7
-6 8 -15 0 -15 2 -15 9 2 8 19 8 19 18 -5 6 -14 11 -20 11 -13 1 6 4 19 7 28
5 13 1 15 -20 11 -15 -3 -24 -1 -21 5 4 5 1 9 -4 9 -6 0 -11 -6 -11 -12 0 -7
-5 -5 -11 5 -6 9 -14 15 -20 12 -5 -4 -9 -1 -9 4 0 14 13 14 28 -1 9 -9 12 -9
12 2 0 9 5 8 20 -5 20 -19 29 -8 9 12 -8 8 -7 13 3 18 7 5 10 4 5 0 -4 -5 0
-17 10 -27 19 -22 41 -25 23 -3 -7 9 -10 18 -7 22 4 3 9 -2 13 -11 3 -9 10
-14 15 -11 4 3 13 -5 19 -17 10 -21 10 -21 -3 -6 -13 17 -15 17 -31 0 -21 -24
-21 -44 2 -40 9 2 16 -2 15 -8 -1 -7 8 -9 25 -6 25 5 26 4 12 -14 -14 -19 -14
-19 7 0 12 10 29 16 37 13 9 -4 19 1 24 10 6 11 11 12 16 4 4 -6 2 -11 -5 -11
-7 0 -9 -3 -6 -7 4 -3 -1 -15 -10 -25 -16 -18 -16 -18 0 -12 9 3 17 2 17 -4 0
-6 -6 -13 -12 -15 -10 -4 -10 -6 -1 -6 7 -1 17 9 24 20 9 17 8 20 -3 14 -7 -5
-10 -4 -5 0 12 13 47 16 47 4 0 -5 -4 -7 -10 -4 -5 3 -10 1 -10 -5 0 -7 6 -10
14 -7 8 3 17 1 20 -6 3 -7 4 -3 3 8 -1 14 4 20 15 19 10 -1 16 2 13 6 -8 13
22 19 34 7 9 -9 10 -7 5 8 -7 18 -6 19 11 5 10 -8 16 -10 12 -3 -4 6 -3 14 3
18 9 6 15 -8 11 -29 -1 -5 6 -3 16 4 28 22 29 24 9 16 -14 -5 -17 -2 -12 9 3
9 2 13 -4 10 -6 -3 -10 -1 -10 6 0 7 -7 4 -15 -7 -8 -10 -15 -15 -15 -11 0 4
-9 3 -19 -3 -13 -6 -28 -7 -43 -1 -23 10 -23 10 -1 10 12 1 24 7 26 14 4 10 6
10 6 0 1 -7 6 -13 12 -13 5 0 8 4 5 9 -3 5 2 15 12 22 15 12 16 12 5 -2 -7 -9
-10 -19 -6 -22 3 -4 11 0 17 8 9 13 15 13 36 2 28 -15 62 -18 54 -6 -2 4 2 10
8 12 10 4 10 6 1 6 -7 1 -13 6 -13 11 0 7 7 7 21 -1 15 -8 19 -8 15 0 -9 14 6
15 20 1 6 -6 10 -3 11 10 2 23 -1 24 -27 10 -16 -9 -18 -8 -14 5 4 9 9 14 12
11 2 -3 13 -1 23 4 12 7 20 6 25 -2 5 -7 3 -8 -6 -3 -9 5 -11 4 -6 -4 6 -9 11
-9 21 -1 7 6 21 7 31 4 17 -6 17 -5 -1 9 -15 11 -22 12 -27 4 -6 -9 -8 -9 -8
-1 0 6 7 17 15 24 8 7 13 15 11 19 -3 4 0 13 5 21 7 11 8 8 5 -11 -3 -20 0
-26 12 -25 10 0 16 -5 14 -12 -1 -8 2 -11 8 -7 8 5 8 11 1 19 -6 7 -7 17 -3
21 4 5 0 4 -8 0 -12 -7 -13 -6 -3 7 7 8 9 19 5 24 -4 4 1 2 11 -5 18 -14 24
-26 7 -16 -6 3 -7 -1 -4 -10 10 -24 16 -11 18 39 2 39 0 43 -15 35 -23 -12
-33 15 -13 36 15 14 9 20 -17 17 -4 -1 -5 7 -2 18 3 11 9 18 13 15 4 -3 14 3
21 13 12 15 12 16 -2 4 -13 -10 -19 -10 -28 2 -14 16 11 42 31 31 7 -4 5 0 -4
8 -10 8 -18 19 -18 25 0 19 -14 21 -30 4 -13 -14 -12 -15 3 -9 9 3 17 2 17 -3
0 -14 -15 -19 -30 -10 -11 7 -12 12 -3 21 14 14 6 42 -10 32 -6 -3 -7 -1 -3 6
6 9 11 9 22 0 16 -13 16 -13 19 18 2 21 1 21 -26 8 -26 -14 -53 -5 -29 10 6 4
5 13 -2 25 -8 12 -15 15 -19 9 -5 -8 -9 -8 -13 0 -4 6 -2 11 4 11 6 0 8 5 5
10 -4 6 -11 7 -17 4 -6 -4 -8 -2 -5 3 6 10 -26 47 -34 39 -2 -2 -5 6 -5 19 -1
14 1 24 5 23 17 -2 31 3 31 11 0 10 -14 9 -42 -3 -9 -4 -14 -14 -12 -21 3 -7
1 -16 -4 -19 -5 -3 -9 2 -8 12 1 12 -6 17 -26 16 -21 0 -25 3 -17 13 9 10 3
12 -24 10 -26 -2 -34 0 -30 10 3 8 8 11 11 9 3 -3 12 0 20 7 13 10 15 9 9 -5
-4 -12 -2 -15 9 -11 13 5 13 8 -2 24 -18 20 -29 25 -19 10 3 -5 1 -12 -4 -15
-5 -3 -12 1 -15 10 -4 9 -13 14 -21 10 -10 -4 -19 2 -25 17 -6 14 -9 17 -9 6z
m-56 -39 c3 -5 2 -10 -4 -10 -6 0 -8 -8 -5 -17 4 -11 2 -14 -3 -8 -11 13 -47
19 -39 6 4 -5 1 -13 -5 -17 -7 -4 -9 -3 -5 4 4 6 -1 10 -13 9 -11 0 -22 -9
-24 -18 -3 -9 -15 -22 -27 -29 -15 -8 -20 -8 -16 -1 4 6 2 12 -3 12 -26 3 -30
4 -36 10 -3 4 1 9 9 12 9 4 18 2 21 -4 4 -5 23 4 45 21 21 17 45 28 53 24 8
-3 18 -1 22 5 8 14 22 14 30 1z m365 -220 c0 -5 -2 -10 -4 -10 -3 0 -8 5 -11
10 -3 6 -1 10 4 10 6 0 11 -4 11 -10z m3 -89 c-20 -17 -21 -20 -6 -25 12 -5
14 -9 5 -18 -13 -13 -17 -11 -26 17 -4 15 0 23 17 31 32 17 35 16 10 -5z
m-608 -140 c3 -5 0 -13 -6 -17 -7 -4 -9 -3 -5 4 3 5 0 13 -6 15 -9 4 -10 6 -1
6 6 1 14 -3 18 -8z m25 -112 c0 -4 -9 -7 -19 -6 -11 0 -18 4 -16 7 6 9 35 8
35 -1z m437 -33 c-3 -7 -1 -18 5 -24 6 -6 6 -12 -2 -17 -6 -4 -17 -2 -23 4 -8
8 -7 11 2 11 11 0 11 3 0 17 -10 11 -10 14 -1 9 6 -4 12 -2 12 3 0 6 3 11 6
11 3 0 4 -6 1 -14z m-40 -11 c0 -8 -4 -12 -9 -9 -5 3 -6 10 -3 15 9 13 12 11
12 -6z m-291 -40 c9 -8 11 -15 5 -15 -5 0 -13 5 -16 10 -4 6 -11 7 -17 4 -7
-4 -8 -2 -4 4 9 16 14 15 32 -3z m174 -35 c0 -5 -2 -10 -4 -10 -3 0 -8 5 -11
10 -3 6 -1 10 4 10 6 0 11 -4 11 -10z"/>
<path d="M320 815 c-7 -9 -8 -15 -2 -15 5 0 12 7 16 15 3 8 4 15 2 15 -2 0 -9
-7 -16 -15z"/>
<path d="M470 869 c-10 -18 -10 -19 8 -10 11 6 23 7 28 3 5 -4 2 1 -5 11 -17
22 -18 21 -31 -4z"/>
<path d="M621 862 c-6 -11 -6 -24 0 -33 7 -12 9 -12 9 1 0 10 3 11 8 4 5 -9
11 -8 21 3 11 12 10 14 -5 11 -13 -2 -19 3 -18 15 2 22 -3 22 -15 -1z"/>
<path d="M738 814 c-4 -3 -14 -7 -24 -8 -31 -5 -26 -22 16 -60 22 -20 37 -36
34 -36 -4 0 -2 -6 5 -13 8 -10 7 -17 -2 -27 -10 -12 -9 -12 5 -1 10 7 15 18
11 24 -4 7 1 8 13 4 17 -6 17 -6 3 5 -9 7 -15 19 -13 26 2 8 0 8 -3 1 -4 -8
-8 -7 -14 2 -4 7 -3 22 2 33 8 17 6 16 -9 -3 -13 -16 -21 -20 -26 -12 -4 6 -2
11 4 11 6 0 8 5 5 10 -4 6 -14 9 -22 8 -9 -2 -18 3 -21 11 -2 8 0 11 5 8 6 -4
19 0 29 8 10 8 16 15 13 15 -3 0 -8 -3 -11 -6z"/>
<path d="M223 793 c1 -17 4 -19 14 -11 15 12 18 22 4 14 -5 -4 -11 0 -14 6 -3
7 -4 3 -4 -9z"/>
<path d="M167 674 c3 -7 1 -14 -5 -14 -5 0 -9 -11 -9 -25 0 -26 11 -33 23 -14
3 6 0 15 -7 20 -12 8 -6 13 12 11 12 -2 5 27 -7 32 -8 3 -11 0 -7 -10z"/>
<path d="M116 635 c14 -39 54 -72 54 -45 0 6 -5 9 -12 8 -6 -2 -17 7 -23 20
-16 31 -28 41 -19 17z"/>
<path d="M114 558 c0 -10 1 -18 3 -18 1 0 7 8 12 18 7 13 6 19 -2 19 -7 0 -13
-9 -13 -19z"/>
<path d="M110 516 c0 -2 7 -6 15 -10 8 -3 15 -1 15 4 0 6 -7 10 -15 10 -8 0
-15 -2 -15 -4z"/>
<path d="M835 450 c-3 -5 -1 -10 4 -10 6 0 11 5 11 10 0 6 -2 10 -4 10 -3 0
-8 -4 -11 -10z"/>
<path d="M153 395 c-3 -9 -3 -18 -1 -21 3 -3 8 4 11 16 6 23 -1 27 -10 5z"/>
<path d="M870 338 c-12 -22 -12 -22 6 -6 10 10 15 20 12 24 -4 3 -12 -5 -18
-18z"/>
<path d="M776 272 c-3 -5 1 -9 9 -9 8 0 12 4 9 9 -3 4 -7 8 -9 8 -2 0 -6 -4
-9 -8z"/>
<path d="M810 250 c0 -5 5 -10 11 -10 5 0 7 5 4 10 -3 6 -8 10 -11 10 -2 0 -4
-4 -4 -10z"/>
<path d="M705 230 c-3 -6 1 -7 9 -4 18 7 21 14 7 14 -6 0 -13 -4 -16 -10z"/>
<path d="M385 179 c-4 -6 -4 -13 -1 -16 3 -4 6 -1 6 6 0 7 5 9 10 6 6 -3 10
-1 10 4 0 14 -17 14 -25 0z"/>
</g>
</svg>
